<?xml version="1.0" standalone="no"?>
<!DOCTYPE svg PUBLIC "-//W3C//DTD SVG 20010904//EN"
 "http://www.w3.org/TR/2001/REC-SVG-20010904/DTD/svg10.dtd">
<svg version="1.0" xmlns="http://www.w3.org/2000/svg"
 width="1892.000000pt" height="560.000000pt" viewBox="0 0 1892.000000 560.000000"
 preserveAspectRatio="xMidYMid meet">

<g transform="translate(0.000000,560.000000) scale(0.100000,-0.100000)"
fill="#000000" stroke="none">
<path d="M11927 4210 c-230 -76 -421 -141 -425 -144 -3 -4 178 -5 403 -4 l408
3 19 75 c10 41 23 98 28 125 6 28 13 58 16 68 4 12 0 17 -13 16 -10 -1 -206
-63 -436 -139z"/>
<path d="M17218 3880 c-251 -46 -442 -187 -555 -412 -96 -191 -123 -322 -123
-608 0 -195 6 -245 48 -421 13 -53 85 -199 131 -267 95 -140 275 -262 441
-298 102 -23 324 -23 405 -2 268 72 435 225 550 503 46 112 85 341 85 500 0
85 -18 245 -39 345 -13 61 -67 213 -93 258 -109 197 -275 332 -476 387 -66 19
-303 28 -374 15z m284 -187 c131 -71 204 -226 250 -523 20 -131 16 -531 -6
-645 -10 -49 -22 -108 -26 -130 -30 -162 -127 -312 -230 -359 -63 -28 -187
-28 -250 1 -182 84 -280 378 -280 838 0 202 15 333 60 514 33 135 118 263 203
308 78 40 201 39 279 -4z"/>
<path d="M7842 3818 c-11 -33 -63 -208 -127 -428 -19 -63 -43 -146 -55 -185
-12 -38 -25 -83 -30 -100 -5 -16 -25 -84 -45 -150 -20 -66 -41 -135 -46 -152
-5 -18 -13 -48 -18 -65 -5 -18 -26 -87 -46 -153 -20 -66 -40 -133 -45 -150
-43 -159 -95 -316 -113 -342 -21 -31 -64 -56 -119 -67 -27 -6 -28 -9 -28 -71
l0 -65 278 2 277 3 3 58 c3 64 8 60 -82 77 -74 15 -106 44 -106 97 0 21 19
101 41 178 23 77 43 152 46 168 3 15 8 27 12 28 3 0 128 2 276 3 283 2 305 -1
305 -43 0 -15 18 -77 66 -231 45 -142 27 -183 -90 -203 l-66 -11 0 -63 0 -63
380 0 380 0 0 61 0 60 -37 15 c-65 25 -86 41 -108 80 -18 32 -64 169 -106 309
-5 17 -17 57 -28 90 -11 33 -36 114 -56 180 -20 66 -54 179 -76 250 -23 72
-57 182 -76 245 -19 63 -39 126 -43 140 -5 14 -25 79 -45 145 -20 66 -45 145
-55 175 -9 30 -28 90 -41 132 l-24 78 -170 0 -171 0 -12 -32z m108 -447 c6
-31 19 -81 29 -111 10 -30 24 -75 31 -100 21 -76 29 -102 55 -185 13 -44 31
-105 39 -135 8 -30 21 -77 30 -104 8 -27 13 -53 10 -58 -6 -10 -454 -11 -454
0 0 6 8 35 51 192 6 19 14 50 20 68 16 57 28 96 34 122 6 21 32 112 64 225 4
17 14 50 21 75 7 25 17 58 23 74 10 26 12 27 23 11 7 -10 18 -43 24 -74z"/>
<path d="M8932 3789 l3 -62 65 -18 c71 -19 103 -48 114 -103 10 -44 13 -750 7
-1157 -6 -328 -7 -348 -26 -369 -27 -29 -61 -46 -112 -55 l-43 -7 0 -64 0 -64
280 0 280 0 0 64 0 64 -42 7 c-24 4 -60 16 -80 26 -70 36 -68 10 -68 780 0
392 4 689 9 689 5 0 11 -8 14 -17 9 -28 55 -190 77 -268 10 -38 29 -101 40
-140 20 -65 29 -95 49 -170 5 -16 25 -84 46 -150 20 -66 41 -135 46 -152 13
-47 23 -82 64 -223 20 -69 40 -138 45 -155 4 -16 14 -50 22 -75 9 -25 27 -85
42 -135 14 -49 30 -101 34 -115 7 -24 10 -25 106 -25 l99 0 14 50 c26 97 36
131 53 185 10 30 30 100 45 155 14 55 31 116 37 135 19 63 26 85 37 125 6 22
26 94 45 160 20 66 42 147 51 180 17 62 29 102 44 158 5 17 25 88 44 157 20
69 43 152 52 185 9 33 22 79 28 102 6 23 15 39 19 37 4 -3 8 -319 8 -702 0
-674 -1 -698 -20 -729 -23 -39 -59 -59 -123 -68 l-48 -7 3 -62 3 -61 373 -3
373 -2 -3 62 -3 62 -55 14 c-63 16 -87 34 -106 79 -19 45 -19 1470 0 1522 16
45 51 71 118 85 l53 12 3 62 3 62 -337 -2 -337 -3 -8 -25 c-4 -14 -19 -63 -33
-110 -14 -47 -32 -110 -40 -140 -8 -30 -36 -125 -61 -210 -47 -157 -74 -251
-101 -350 -15 -54 -26 -95 -44 -155 -34 -117 -53 -185 -59 -214 -9 -50 -28
-50 -41 1 -6 24 -19 70 -29 103 -27 87 -70 229 -93 310 -11 39 -24 81 -28 95
-30 96 -125 419 -140 475 -4 17 -21 73 -37 125 l-28 95 -353 3 -353 2 3 -61z"/>
<path d="M11745 3793 c-31 -112 -48 -169 -65 -223 -9 -30 -23 -75 -30 -100 -7
-25 -16 -56 -21 -70 -9 -28 -66 -218 -80 -267 -5 -18 -13 -48 -18 -65 -5 -18
-26 -87 -46 -153 -20 -66 -41 -136 -46 -155 -20 -71 -28 -98 -74 -250 -45
-150 -55 -183 -74 -252 -45 -165 -80 -211 -178 -233 l-33 -7 0 -64 0 -64 273
2 272 3 3 60 3 61 -67 11 c-124 22 -141 66 -89 238 28 93 40 136 55 193 16 64
7 62 292 62 146 0 267 -4 277 -10 10 -5 24 -31 31 -57 7 -26 20 -73 30 -103
45 -140 60 -198 60 -231 0 -52 -33 -78 -114 -92 l-67 -11 3 -61 3 -60 373 -3
372 -2 0 63 0 62 -51 18 c-62 23 -95 69 -134 195 -53 164 -94 297 -115 372
-12 41 -26 84 -30 95 -8 21 -62 194 -101 325 -12 41 -37 125 -56 185 -19 61
-39 124 -44 140 -5 17 -17 57 -28 90 -17 53 -74 238 -103 335 -26 88 -7 80
-197 80 l-170 0 -16 -57z m113 -401 c12 -37 22 -74 22 -82 0 -8 9 -44 20 -80
127 -423 159 -533 160 -552 0 -5 -104 -8 -231 -8 l-231 0 5 28 c3 15 10 43 15
62 6 19 19 67 30 105 11 39 34 120 51 180 17 61 35 126 41 145 5 19 19 64 30
99 11 35 20 70 20 78 0 26 25 93 35 93 5 0 20 -31 33 -68z"/>
<path d="M12842 3788 l3 -62 39 -8 c69 -14 104 -37 126 -82 20 -41 20 -58 20
-769 0 -781 0 -775 -51 -810 -12 -9 -46 -22 -75 -28 l-52 -12 -5 -56 c-2 -31
-2 -59 2 -64 4 -4 133 -6 287 -5 l279 3 3 62 3 61 -43 7 c-67 11 -115 34 -134
63 -23 35 -32 285 -33 910 -1 449 1 475 33 416 6 -10 14 -21 17 -24 4 -3 18
-27 31 -55 39 -78 119 -227 137 -255 9 -14 23 -38 31 -55 8 -16 27 -50 41 -76
41 -71 79 -139 112 -199 16 -30 38 -68 47 -85 20 -34 58 -103 103 -185 16 -30
45 -81 63 -113 19 -32 34 -60 34 -63 0 -2 10 -21 23 -42 25 -39 63 -107 174
-312 46 -83 41 -81 187 -78 l131 3 5 870 c6 952 2 901 65 943 16 11 48 24 70
28 50 9 55 16 55 82 l0 52 -285 0 -286 0 3 -62 3 -62 53 -12 c67 -15 102 -40
117 -84 20 -57 35 -383 35 -747 0 -188 -3 -348 -6 -357 -9 -23 -29 -20 -41 7
-18 41 -74 152 -91 182 -26 45 -85 153 -122 220 -18 33 -40 74 -50 90 -9 17
-31 56 -49 88 -17 31 -45 83 -62 115 -18 31 -40 71 -49 87 -26 45 -96 170
-190 340 -18 33 -48 86 -66 118 -19 32 -34 62 -34 68 0 5 -120 9 -305 9 l-306
0 3 -62z"/>
<path d="M14682 3788 l3 -61 57 -16 c70 -20 104 -48 118 -100 7 -27 10 -271 8
-768 l-3 -728 -22 -31 c-24 -33 -54 -49 -115 -59 l-38 -6 0 -65 0 -66 453 5
c489 5 512 7 673 64 105 38 213 106 293 185 123 121 203 278 247 484 24 111
24 399 0 508 -75 348 -256 569 -543 665 -132 44 -220 51 -691 51 l-443 0 3
-62z m808 -108 c144 -19 279 -109 349 -234 85 -154 115 -302 115 -576 0 -214
-20 -376 -55 -442 -5 -10 -9 -23 -9 -28 0 -32 -70 -150 -119 -200 -99 -101
-191 -133 -386 -134 l-130 -1 -3 800 c-1 440 0 806 3 813 5 15 125 16 235 2z"/>
<path d="M1110 3359 c-69 -16 -167 -39 -217 -50 l-93 -21 0 -60 c0 -38 4 -60
13 -62 6 -3 32 -10 57 -18 31 -9 51 -23 67 -47 l23 -34 0 -754 c0 -788 0 -796
-42 -831 -9 -7 -39 -18 -67 -25 l-51 -12 0 -62 0 -63 355 0 355 0 0 64 0 64
-57 7 c-69 8 -104 25 -127 59 -13 21 -16 56 -16 226 0 120 4 200 10 200 5 0
26 -11 46 -25 76 -51 215 -69 345 -45 121 23 242 107 318 219 53 80 78 137
108 254 24 92 26 120 27 292 0 199 -7 256 -56 405 -25 76 -99 191 -154 239
-22 18 -73 50 -114 70 -72 34 -80 36 -180 36 -97 0 -110 -2 -173 -32 -39 -19
-92 -55 -126 -88 -32 -30 -61 -55 -64 -55 -4 0 -7 41 -7 90 l0 90 -27 -1 c-16
0 -84 -14 -153 -30z m498 -218 c83 -42 136 -125 169 -264 27 -113 24 -462 -5
-575 -27 -104 -44 -140 -93 -196 -87 -99 -227 -95 -331 9 l-38 37 0 458 0 458
35 26 c86 66 190 84 263 47z"/>
<path d="M2530 3343 c-258 -59 -242 -51 -238 -115 l3 -53 60 -20 c45 -15 65
-28 82 -54 l23 -34 0 -474 c0 -403 -2 -478 -15 -503 -17 -34 -42 -49 -105 -65
l-45 -11 0 -60 0 -59 355 0 355 0 0 59 0 60 -60 11 c-75 14 -101 28 -120 65
-13 25 -15 98 -15 483 l0 454 41 47 c44 50 85 76 119 76 16 0 20 -6 20 -31 0
-38 32 -97 68 -124 40 -29 128 -32 180 -6 127 65 129 278 3 366 -37 26 -50 29
-114 29 -42 0 -86 -7 -107 -16 -55 -24 -131 -86 -178 -145 -24 -29 -48 -50
-54 -47 -6 4 -9 44 -7 108 l4 101 -30 2 c-16 1 -118 -19 -225 -44z"/>
<path d="M3895 3375 c-102 -22 -209 -74 -270 -131 -53 -49 -116 -136 -147
-204 -35 -75 -45 -105 -69 -210 -16 -73 -16 -347 0 -425 27 -123 84 -261 130
-315 144 -167 279 -230 497 -230 131 0 189 12 289 60 120 58 214 156 274 285
13 28 27 57 31 65 14 28 38 145 51 243 23 176 -11 396 -84 547 -80 164 -225
277 -402 315 -85 18 -219 18 -300 0z m233 -163 c138 -63 208 -378 171 -772
-10 -105 -18 -146 -49 -252 -18 -62 -71 -131 -120 -155 -70 -36 -161 -27 -219
22 -34 29 -86 131 -101 201 -52 229 -52 551 0 744 52 193 178 277 318 212z"/>
<path d="M5250 3375 c-137 -31 -276 -130 -329 -233 -86 -168 -81 -366 12 -525
31 -52 103 -121 152 -144 19 -9 35 -19 35 -22 0 -3 -19 -18 -43 -33 -60 -38
-124 -103 -149 -152 -17 -30 -22 -59 -23 -111 0 -88 27 -145 90 -195 l45 -35
-67 -32 c-128 -60 -185 -138 -185 -252 -1 -149 100 -253 297 -307 78 -22 391
-31 495 -15 145 23 292 88 383 169 50 46 109 134 128 192 18 57 18 200 0 263
-29 100 -138 180 -286 212 -43 9 -156 17 -295 21 -263 7 -293 12 -320 57 -32
51 -21 106 29 151 19 17 26 18 97 6 144 -23 303 6 418 75 69 41 116 90 160
165 49 85 61 133 61 250 0 111 -12 163 -52 238 l-24 42 33 0 c18 0 69 -7 112
-14 43 -8 85 -12 93 -9 11 4 13 29 11 117 l-3 111 -69 3 c-73 3 -173 -21 -249
-60 l-38 -19 -37 22 c-20 12 -68 33 -107 46 -90 32 -275 41 -375 18z m217
-146 c15 -5 41 -22 56 -37 107 -102 124 -432 30 -584 -29 -48 -62 -69 -117
-75 -112 -13 -178 54 -212 217 -33 156 -7 346 59 426 48 58 118 78 184 53z
m-6 -1358 c200 -7 220 -9 265 -32 59 -30 85 -63 91 -122 10 -90 -52 -184 -151
-227 -66 -29 -170 -43 -281 -37 -147 7 -231 47 -282 135 -23 39 -27 58 -27
117 0 65 19 135 36 135 5 0 8 7 8 15 0 24 32 36 80 30 25 -3 142 -9 261 -14z"/>
<path d="M6530 3355 c-74 -18 -170 -41 -212 -50 l-78 -17 0 -58 0 -59 55 -16
c69 -20 92 -42 100 -97 3 -24 5 -251 3 -506 l-3 -464 -32 -28 c-20 -18 -48
-31 -77 -35 l-46 -7 0 -64 0 -64 353 2 352 3 0 59 0 60 -63 11 c-74 14 -113
40 -124 83 -5 18 -7 234 -6 482 l3 449 40 41 c44 46 106 82 121 72 5 -4 17
-32 27 -62 21 -66 32 -82 74 -103 69 -36 173 -13 217 47 67 93 60 211 -19 292
-67 70 -171 82 -272 32 -56 -28 -144 -106 -174 -154 -32 -52 -44 -39 -45 52
-2 141 -1 134 -31 133 -16 -1 -89 -16 -163 -34z"/>
</g>
</svg>
